HIERARCHY
ROOT Hips
{
  OFFSET -0.589095 22.1471 2.58842
  CHANNELS 6 Xposition Yposition Zposition Zrotation Xrotation Yrotation
  JOINT BN_Bip01_Pelvis
  {
    OFFSET -3.49357 -5.29363 -0.000213444
    CHANNELS 6 Xposition Yposition Zposition Zrotation Xrotation Yrotation
    JOINT BN_leg_R_01
    {
      OFFSET 10.8127 -7.82778 -6.29737
      CHANNELS 6 Xposition Yposition Zposition Zrotation Xrotation Yrotation
      JOINT BN_leg_R_02
      {
        OFFSET 8.91071 0 0
        CHANNELS 6 Xposition Yposition Zposition Zrotation Xrotation Yrotation
        JOINT BN_leg_R_03
        {
          OFFSET 15.6024 0 0
          CHANNELS 6 Xposition Yposition Zposition Zrotation Xrotation Yrotation
          JOINT BN_leg_R_04
          {
            OFFSET 9.68174 0 0
            CHANNELS 6 Xposition Yposition Zposition Zrotation Xrotation Yrotation
            JOINT BN_leg_R_05
            {
              OFFSET 10.6982 0 0
              CHANNELS 6 Xposition Yposition Zposition Zrotation Xrotation Yrotation
              JOINT BN_Leg_R_05Nub
              {
                OFFSET 11.1504 0 0
                CHANNELS 6 Xposition Yposition Zposition Zrotation Xrotation Yrotation
                End Site
                {
                  OFFSET 0 0 0
                }
              }
            }
          }
        }
      }
    }
    JOINT BN_leg_R_06
    {
      OFFSET 6.51511 -7.99898 -4.29089
      CHANNELS 6 Xposition Yposition Zposition Zrotation Xrotation Yrotation
      JOINT BN_Leg_R_07
      {
        OFFSET 9.03709 0 0
        CHANNELS 6 Xposition Yposition Zposition Zrotation Xrotation Yrotation
        JOINT BN_Leg_R_08
        {
          OFFSET 18.7638 0 0
          CHANNELS 6 Xposition Yposition Zposition Zrotation Xrotation Yrotation
          JOINT BN_Leg_R_09
          {
            OFFSET 10.9666 0 0
            CHANNELS 6 Xposition Yposition Zposition Zrotation Xrotation Yrotation
            JOINT BN_Leg_R_10
            {
              OFFSET 10.8726 0 0
              CHANNELS 6 Xposition Yposition Zposition Zrotation Xrotation Yrotation
              JOINT BN_Leg_R_10Nub
              {
                OFFSET 11.2648 0 0
                CHANNELS 6 Xposition Yposition Zposition Zrotation Xrotation Yrotation
                End Site
                {
                  OFFSET 0 0 0
                }
              }
            }
          }
        }
      }
    }
    JOINT BN_Leg_R_11
    {
      OFFSET 2.71429 -8.18693 -0.209972
      CHANNELS 6 Xposition Yposition Zposition Zrotation Xrotation Yrotation
      JOINT BN_Leg_R_12
      {
        OFFSET 9.8713 0 0
        CHANNELS 6 Xposition Yposition Zposition Zrotation Xrotation Yrotation
        JOINT BN_Leg_R_13
        {
          OFFSET 21.8657 0 0
          CHANNELS 6 Xposition Yposition Zposition Zrotation Xrotation Yrotation
          JOINT BN_Leg_R_14
          {
            OFFSET 11.0011 0 0
            CHANNELS 6 Xposition Yposition Zposition Zrotation Xrotation Yrotation
            JOINT BN_Leg_R_15
            {
              OFFSET 12.8798 0 0
              CHANNELS 6 Xposition Yposition Zposition Zrotation Xrotation Yrotation
              JOINT BN_Leg_R_15Nub
              {
                OFFSET 13.0642 0 0
                CHANNELS 6 Xposition Yposition Zposition Zrotation Xrotation Yrotation
                End Site
                {
                  OFFSET 0 0 0
                }
              }
            }
          }
        }
      }
    }
    JOINT BN_Leg_L_11
    {
      OFFSET 2.7143 8.18692 -0.209982
      CHANNELS 6 Xposition Yposition Zposition Zrotation Xrotation Yrotation
      JOINT BN_Leg_L_12
      {
        OFFSET 9.87129 0 0
        CHANNELS 6 Xposition Yposition Zposition Zrotation Xrotation Yrotation
        JOINT BN_Leg_L_13
        {
          OFFSET 21.8657 0 0
          CHANNELS 6 Xposition Yposition Zposition Zrotation Xrotation Yrotation
          JOINT BN_Leg_L_14
          {
            OFFSET 11.0011 0 0
            CHANNELS 6 Xposition Yposition Zposition Zrotation Xrotation Yrotation
            JOINT BN_Leg_L_15
            {
              OFFSET 12.8798 0 0
              CHANNELS 6 Xposition Yposition Zposition Zrotation Xrotation Yrotation
              JOINT BN_Leg_L_15Nub
              {
                OFFSET 13.0642 0 0
                CHANNELS 6 Xposition Yposition Zposition Zrotation Xrotation Yrotation
                End Site
                {
                  OFFSET 0 0 0
                }
              }
            }
          }
        }
      }
    }
    JOINT BN_leg_L_06
    {
      OFFSET 6.51511 7.99896 -4.29091
      CHANNELS 6 Xposition Yposition Zposition Zrotation Xrotation Yrotation
      JOINT BN_Leg_L_07
      {
        OFFSET 9.03709 0 0
        CHANNELS 6 Xposition Yposition Zposition Zrotation Xrotation Yrotation
        JOINT BN_Leg_L_08
        {
          OFFSET 18.7638 0 0
          CHANNELS 6 Xposition Yposition Zposition Zrotation Xrotation Yrotation
          JOINT BN_Leg_L_09
          {
            OFFSET 10.9666 0 0
            CHANNELS 6 Xposition Yposition Zposition Zrotation Xrotation Yrotation
            JOINT BN_Leg_L_10
            {
              OFFSET 10.8726 0 0
              CHANNELS 6 Xposition Yposition Zposition Zrotation Xrotation Yrotation
              JOINT BN_Leg_L_10Nub
              {
                OFFSET 11.2649 0 0
                CHANNELS 6 Xposition Yposition Zposition Zrotation Xrotation Yrotation
                End Site
                {
                  OFFSET 0 0 0
                }
              }
            }
          }
        }
      }
    }
    JOINT BN_leg_L_01
    {
      OFFSET 10.8127 7.82776 -6.29737
      CHANNELS 6 Xposition Yposition Zposition Zrotation Xrotation Yrotation
      JOINT BN_leg_L_02
      {
        OFFSET 8.91072 0 0
        CHANNELS 6 Xposition Yposition Zposition Zrotation Xrotation Yrotation
        JOINT BN_leg_L_03
        {
          OFFSET 15.6024 0 0
          CHANNELS 6 Xposition Yposition Zposition Zrotation Xrotation Yrotation
          JOINT BN_leg_L_04
          {
            OFFSET 9.68174 0 0
            CHANNELS 6 Xposition Yposition Zposition Zrotation Xrotation Yrotation
            JOINT BN_leg_L_05
            {
              OFFSET 10.6982 0 0
              CHANNELS 6 Xposition Yposition Zposition Zrotation Xrotation Yrotation
              JOINT BN_Leg_L_05Nub
              {
                OFFSET 11.1504 0 0
                CHANNELS 6 Xposition Yposition Zposition Zrotation Xrotation Yrotation
                End Site
                {
                  OFFSET 0 0 0
                }
              }
            }
          }
        }
      }
    }
    JOINT BN_Eye_L_01
    {
      OFFSET 28.5502 2.54627 -3.93739
      CHANNELS 6 Xposition Yposition Zposition Zrotation Xrotation Yrotation
      JOINT BN_Eye_L_02
      {
        OFFSET 2.30267 0 0
        CHANNELS 6 Xposition Yposition Zposition Zrotation Xrotation Yrotation
        JOINT BN_Eye_L_03
        {
          OFFSET 5.31894 0 0
          CHANNELS 6 Xposition Yposition Zposition Zrotation Xrotation Yrotation
          JOINT BN_Eye_L_04
          {
            OFFSET 9.71244 0 0
            CHANNELS 6 Xposition Yposition Zposition Zrotation Xrotation Yrotation
            End Site
            {
              OFFSET 0 0 0
            }
          }
        }
      }
    }
    JOINT BN_Eye_R_01
    {
      OFFSET 28.5502 -2.54612 -3.93738
      CHANNELS 6 Xposition Yposition Zposition Zrotation Xrotation Yrotation
      JOINT BN_Eye_R_02
      {
        OFFSET 2.30267 0 0
        CHANNELS 6 Xposition Yposition Zposition Zrotation Xrotation Yrotation
        JOINT BN_Eye_R_03
        {
          OFFSET 5.31896 0 0
          CHANNELS 6 Xposition Yposition Zposition Zrotation Xrotation Yrotation
          JOINT BN_Eye_R_04
          {
            OFFSET 9.71244 0 0
            CHANNELS 6 Xposition Yposition Zposition Zrotation Xrotation Yrotation
            End Site
            {
              OFFSET 0 0 0
            }
          }
        }
      }
    }
    JOINT BN_Arm_L_01
    {
      OFFSET 15.9737 8.03546 -8.36195
      CHANNELS 6 Xposition Yposition Zposition Zrotation Xrotation Yrotation
      JOINT BN_Arm_L_02
      {
        OFFSET 16.8869 0 0
        CHANNELS 6 Xposition Yposition Zposition Zrotation Xrotation Yrotation
        JOINT BN_Arm_L_03
        {
          OFFSET 8.42975 0 0
          CHANNELS 6 Xposition Yposition Zposition Zrotation Xrotation Yrotation
          JOINT BN_Arm_L_04
          {
            OFFSET 7.53864 -0.0312023 2.09083
            CHANNELS 6 Xposition Yposition Zposition Zrotation Xrotation Yrotation
            End Site
            {
              OFFSET 0 0 0
            }
          }
        }
      }
    }
    JOINT BN_Arm_R_01
    {
      OFFSET 14.7806 -6.70232 -9.44366
      CHANNELS 6 Xposition Yposition Zposition Zrotation Xrotation Yrotation
      JOINT BN_Arm_R_02
      {
        OFFSET 19.9827 0 0
        CHANNELS 6 Xposition Yposition Zposition Zrotation Xrotation Yrotation
        JOINT BN_Arm_R_03
        {
          OFFSET 17.4553 0 0
          CHANNELS 6 Xposition Yposition Zposition Zrotation Xrotation Yrotation
          JOINT BN_Arm_R_04
          {
            OFFSET 13.3834 -2.22657 7.3982
            CHANNELS 6 Xposition Yposition Zposition Zrotation Xrotation Yrotation
            End Site
            {
              OFFSET 0 0 0
            }
          }
        }
      }
    }
  }
}
MOTION
Frames:	4
Frame Time:	0.0333333
-6.64219 18.8543 -3.59105 -29.6515 11.6465 18.7901 -3.49325 -8.0258 1.77636e-015 -163.389 -84.4569 153.045 10.8127 -7.82778 -6.29736 -62.2663 55.8014 -42.7186 8.91072 -1.90735e-006 9.53674e-007 23.1775 -0.456003 0.300569 15.6024 1.43051e-006 -9.53674e-007 -46.0816 30.9955 47.5165 9.68174 -3.8147e-006 3.79252e-013 -41.9643 -1.56853 -15.9756 10.6982 0 -2.86102e-006 -60.481 4.11101 -3.04362 11.1504 3.8147e-006 -1.90735e-006 2.23771e-007 9.05579e-006 1.44972e-006 6.5151 -7.99897 -4.29089 -140.39 43.8244 -6.93752 9.03709 -2.86102e-006 -1.90735e-006 81.936 -1.98501 -2.90471 18.7638 -9.53675e-007 5.32907e-015 -62.9201 15.3787 32.9915 10.9665 -3.8147e-006 3.8147e-006 -27.5617 -0.508455 -1.40664 10.8726 3.8147e-006 3.37508e-014 -25.8279 -0.0149794 -2.62642 11.2648 3.8147e-006 1.90735e-006 -1.98918e-006 -1.00584e-008 -4.0119e-008 2.71429 -8.18693 -0.209967 -135.375 38.0502 -28.1351 9.87129 -1.90735e-006 0 37.4672 2.41537 -0.239358 21.8657 2.86102e-006 -1.90735e-006 -28.9249 15.6608 27.8046 11.0011 3.8147e-006 8.59757e-013 -29.1477 -0.110747 -0.92463 12.8798 -3.8147e-006 -7.6294e-006 -40.5961 0.00769243 -0.00285146 13.0642 3.8147e-006 3.8147e-006 3.67635e-007 9.99393e-006 2.30396e-006 2.7143 8.18692 -0.209976 141.173 -27.8796 4.31119 9.8713 -9.53674e-007 -1.90735e-006 -39.1097 -2.40145 -0.041195 21.8657 -9.53674e-007 3.8147e-006 47.4555 -4.49935 17.4105 11.0011 -5.82645e-013 3.8147e-006 15.3963 0.470246 -0.780781 12.8798 3.8147e-006 1.90735e-006 23.8833 0.0473782 0.0832195 13.0642 2.13163e-014 1.90735e-006 5.15166e-007 1.8987e-006 3.73471e-007 6.51512 7.99896 -4.2909 130.566 -22.1964 19.8452 9.03709 9.53674e-007 -1.90735e-006 -90.2418 2.15598 -2.94643 18.7638 -2.86102e-006 0 101.151 -27.792 36.7068 10.9666 0 1.77636e-015 42.2425 0.324269 -2.36359 10.8726 3.81469e-006 -1.1724e-013 40.415 0.0167839 -3.49849 11.2649 3.81469e-006 1.90735e-006 2.01991e-007 7.80035e-008 1.00277e-005 10.8127 7.82776 -6.29737 98.0805 -32.7637 43.4776 8.91072 9.53674e-007 2.86102e-006 -88.3667 -1.21863 1.79076 15.6024 2.86102e-006 9.53674e-007 92.7627 -30.0408 49.9748 9.68173 1.90735e-006 7.63833e-014 36.5821 1.15018 -14.7538 10.6982 -1.42109e-014 0 54.0962 -4.11282 -2.32399 11.1504 -3.8147e-006 -9.53674e-007 -9.97064e-006 4.015e-006 1.00146e-005 28.5502 2.54627 -3.93738 89.995 -40.8534 50.3814 2.30267 -1.90735e-006 -2.66454e-015 -31.0798 13.6511 7.18921 5.31895 -1.77636e-015 2.38419e-007 -23.1405 -0.998483 -9.92244 9.71243 -7.10543e-015 7.99361e-015 -44.5567 -4.31069 -0.624698 28.5502 -2.54612 -3.93737 89.9968 -39.1541 129.609 2.30267 -1.90735e-006 4.76837e-007 -41.6688 -0.878845 9.05707 5.31895 3.55271e-015 -7.10543e-015 -8.31754 0.730141 20.3635 9.71243 9.53675e-007 -5.36442e-007 -14.1372 -6.22614 34.3044 15.9737 8.03546 -8.36195 59.2906 27.5804 -0.676482 16.8869 -2.38419e-006 -1.90735e-006 -61.7623 -4.33422 -3.97079 8.42975 0 -9.53675e-007 -38.3613 -18.1061 4.02808 7.53865 -0.0312081 2.09083 -7.41595 -5.38227 5.02419 14.7806 -6.70232 -9.44365 -11.764 -21.7608 5.73025 19.9827 1.90735e-006 -3.8147e-006 18.9994 -30.1778 -4.75501 17.4553 3.8147e-006 9.53674e-007 16.1619 -34.0992 -15.8876 13.3835 -2.22654 7.39821 6.53344 5.76632 15.1107 
-6.7979 18.6244 -3.57914 -30.4632 11.6801 19.0828 -3.49325 -8.0258 0 -163.39 -84.4569 153.045 10.8127 -7.82778 -6.29736 -59.5486 55.1942 -44.9275 8.91072 -1.90735e-006 9.53674e-007 21.1211 -0.463011 0.264019 15.6024 1.43051e-006 -9.53674e-007 -44.5272 31.6757 47.9289 9.68174 -3.8147e-006 3.88134e-013 -42.5067 -1.60835 -16.0964 10.6982 7.10543e-015 -2.86102e-006 -61.1243 4.11059 -3.10842 11.1504 3.8147e-006 -1.90735e-006 2.23771e-007 9.05579e-006 1.44972e-006 6.5151 -7.99897 -4.29089 -139.837 44.1634 -7.46879 9.03709 -2.86102e-006 -1.90735e-006 81.7798 -1.98139 -2.90252 18.7638 -9.53675e-007 -7.10543e-015 -62.636 15.7872 33.3696 10.9665 -3.8147e-006 3.8147e-006 -28.0088 -0.502981 -1.43772 10.8726 3.8147e-006 2.84217e-014 -26.2735 -0.0155176 -2.65792 11.2648 3.8147e-006 1.90735e-006 -1.98918e-006 -1.00583e-008 -4.01189e-008 2.71429 -8.18693 -0.209967 -135.858 38.2284 -27.9317 9.87129 -1.90735e-006 -5.32907e-015 38.1509 2.41286 -0.245859 21.8657 2.86102e-006 -1.90735e-006 -29.345 15.9825 28.1651 11.0011 3.8147e-006 8.7752e-013 -29.2921 -0.107734 -0.926122 12.8798 -3.8147e-006 -7.6294e-006 -40.7712 0.00980642 -0.00526936 13.0642 3.8147e-006 3.8147e-006 3.67635e-007 9.99393e-006 2.30396e-006 2.7143 8.18692 -0.209976 141.64 -27.6467 5.08005 9.8713 -9.53674e-007 -1.90735e-006 -39.757 -2.40083 -0.0683157 21.8657 -9.53674e-007 3.8147e-006 47.768 -4.70459 17.6951 11.0011 -6.11067e-013 3.8147e-006 15.6208 0.46616 -0.786275 12.8798 3.8147e-006 1.90735e-006 24.1649 0.0477674 0.0829425 13.0642 7.10543e-015 1.90735e-006 5.15166e-007 1.8987e-006 3.73471e-007 6.51512 7.99896 -4.2909 129.979 -22.1287 19.88 9.03709 9.53674e-007 -1.90735e-006 -90.2109 2.15521 -2.94694 18.7638 -2.86102e-006 0 101.171 -28.4535 37.2218 10.9666 0 3.9968e-015 42.7378 0.316887 -2.39631 10.8726 3.81469e-006 -1.29674e-013 40.9075 0.0154107 -3.52244 11.2649 3.81469e-006 1.90735e-006 2.01991e-007 7.80034e-008 1.00277e-005 10.8127 7.82776 -6.29737 95.4438 -33.6206 42.0236 8.91072 9.53674e-007 2.86102e-006 -87.7363 -1.18139 1.7894 15.6024 2.86102e-006 9.53674e-007 92.2469 -30.2582 50.4559 9.68173 1.90735e-006 8.88178e-014 36.7231 1.16214 -14.7875 10.6982 1.42109e-014 0 54.2651 -4.11336 -2.34305 11.1504 -3.8147e-006 -9.53674e-007 -9.97064e-006 4.015e-006 1.00146e-005 28.5502 2.54627 -3.93738 89.9951 -40.8534 50.3814 2.30267 -1.90735e-006 -5.32907e-015 -29.7849 14.866 7.29312 5.31895 0 2.38419e-007 -18.8844 0.889557 -6.87695 9.71243 -8.88178e-015 1.24345e-014 -40.5499 -3.91429 0.508521 28.5502 -2.54612 -3.93737 89.9967 -39.1541 129.608 2.30267 -1.90735e-006 4.76837e-007 -42.2047 -1.01904 7.05402 5.31895 -7.10543e-015 0 -8.66592 0.625667 17.6164 9.71243 9.53675e-007 -5.36442e-007 -14.9281 -5.9448 31.3458 15.9737 8.03546 -8.36195 59.8584 27.6649 -0.99255 16.8869 -2.38419e-006 -1.90735e-006 -61.0602 -3.98867 -4.48129 8.42975 7.10543e-015 -9.53675e-007 -37.4851 -17.1917 3.85743 7.53865 -0.0312081 2.09083 -7.42785 -5.42334 0.923057 14.7806 -6.70232 -9.44365 -10.884 -20.6417 7.54689 19.9827 1.90735e-006 -3.8147e-006 20.4052 -30.945 -4.35743 17.4553 3.8147e-006 9.53674e-007 15.395 -34.1713 -17.4353 13.3835 -2.22654 7.39821 6.57967 5.66124 15.0998 
-7.04211 18.453 -3.53047 -31.151 11.6714 19.2671 -3.49325 -8.0258 0 -163.39 -84.4569 153.045 10.8127 -7.82778 -6.29736 -57.7684 54.8098 -46.1486 8.91072 -1.90735e-006 9.53674e-007 20.0405 -0.465088 0.24199 15.6024 1.43051e-006 -9.53674e-007 -43.7083 32.0754 48.274 9.68174 -3.8147e-006 3.90798e-013 -42.7604 -1.62428 -16.1502 10.6982 0 -2.86102e-006 -61.422 4.11077 -3.13871 11.1504 3.8147e-006 -1.90735e-006 2.23771e-007 9.05579e-006 1.44972e-006 6.5151 -7.99897 -4.29089 -139.44 44.3808 -7.6957 9.03709 -2.86102e-006 -1.90735e-006 81.9128 -1.98442 -2.90511 18.7638 -9.53675e-007 1.77636e-015 -62.6351 16.1228 33.6531 10.9665 -3.8147e-006 3.8147e-006 -28.3946 -0.498915 -1.4646 10.8726 3.8147e-006 2.30926e-014 -26.6544 -0.0153701 -2.68139 11.2648 3.8147e-006 1.90735e-006 -1.98918e-006 -1.00583e-008 -4.01189e-008 2.71429 -8.18693 -0.209967 -136.682 38.5549 -27.3521 9.87129 -1.90735e-006 -5.32907e-015 39.602 2.40773 -0.261016 21.8657 2.86102e-006 -1.90735e-006 -30.4899 16.1497 28.3739 11.0011 3.8147e-006 9.05942e-013 -29.2778 -0.107912 -0.92619 12.8798 -3.8147e-006 -7.6294e-006 -40.7528 0.00980471 -0.00527247 13.0642 3.8147e-006 3.8147e-006 3.67635e-007 9.99393e-006 2.30396e-006 2.7143 8.18692 -0.209976 142.051 -27.4187 5.78557 9.8713 -9.53674e-007 -1.90735e-006 -40.5174 -2.39971 -0.100164 21.8657 -9.53674e-007 3.8147e-006 48.1647 -4.89715 17.9293 11.0011 -6.18172e-013 3.8147e-006 15.841 0.462129 -0.791609 12.8798 3.8147e-006 1.90735e-006 24.4412 0.0467595 0.0796148 13.0642 0 1.90735e-006 5.15166e-007 1.8987e-006 3.73502e-007 6.51512 7.99896 -4.2909 129.253 -22.0525 19.9071 9.03709 9.53674e-007 -1.90735e-006 -90.1029 2.15487 -2.94162 18.7638 -2.86102e-006 3.55271e-015 101.08 -29.0071 37.7488 10.9666 0 8.88179e-016 43.0914 0.309587 -2.41591 10.8726 3.81469e-006 -1.31006e-013 41.2593 0.0159228 -3.54155 11.2649 3.81469e-006 1.90735e-006 2.0196e-007 7.80035e-008 1.00277e-005 10.8127 7.82776 -6.29737 92.8762 -34.3699 40.611 8.91072 9.53674e-007 2.86102e-006 -86.9463 -1.13739 1.7893 15.6024 2.86102e-006 9.53674e-007 91.3659 -30.2906 50.8155 9.68173 1.90735e-006 9.23706e-014 36.7453 1.16148 -14.7922 10.6982 -7.10543e-015 -1.77636e-015 54.2923 -4.11241 -2.34673 11.1504 -3.8147e-006 -9.53674e-007 -9.97064e-006 4.015e-006 1.00146e-005 28.5502 2.54627 -3.93738 89.995 -40.8534 50.3813 2.30267 -1.90735e-006 -1.77636e-015 -29.1795 15.7383 7.3986 5.31895 0 2.38419e-007 -14.4978 3.57363 -2.91761 9.71243 -8.88178e-015 8.88179e-015 -35.0425 -3.84548 2.25711 28.5502 -2.54612 -3.93737 89.9969 -39.1541 129.609 2.30267 -1.90735e-006 4.76837e-007 -42.6333 -1.09625 5.6079 5.31895 1.77636e-015 -5.32907e-015 -8.99781 0.542271 15.0118 9.71243 9.53675e-007 -5.36442e-007 -15.7707 -5.50575 27.4985 15.9737 8.03546 -8.36195 60.332 27.7744 -1.31954 16.8869 -2.38419e-006 -1.90735e-006 -60.3025 -3.61913 -5.03212 8.42975 0 -9.53675e-007 -36.5373 -16.2135 3.69186 7.53865 -0.0312081 2.09083 -7.43967 -5.43462 -3.15364 14.7806 -6.70232 -9.44365 -10.3696 -19.7777 9.34632 19.9827 1.90735e-006 -3.8147e-006 21.8367 -31.5363 -4.17019 17.4553 3.8147e-006 9.53674e-007 14.945 -33.9908 -18.7008 13.3835 -2.22654 7.39821 6.62086 5.56434 15.0855 
-7.38271 18.3431 -3.44283 -31.7416 11.6109 19.3398 -3.49325 -8.0258 0 -163.39 -84.4568 153.045 10.8127 -7.82778 -6.29736 -57.1993 54.864 -46.1629 8.91072 -1.90735e-006 9.53674e-007 20.577 -0.4627 0.251046 15.6024 1.43051e-006 -9.53674e-007 -44.0307 32.0432 48.4953 9.68174 -3.8147e-006 3.90798e-013 -42.6011 -1.61372 -16.1161 10.6982 0 -2.86102e-006 -61.235 4.10999 -3.11842 11.1504 3.8147e-006 -1.90735e-006 2.23771e-007 9.05579e-006 1.44972e-006 6.5151 -7.99897 -4.29089 -139.212 44.458 -7.58812 9.03709 -2.86102e-006 -1.90735e-006 82.3677 -1.99265 -2.90939 18.7638 -9.53675e-007 -3.55271e-015 -62.9408 16.3845 33.85 10.9665 -3.8147e-006 3.8147e-006 -28.7087 -0.497338 -1.48464 10.8726 3.8147e-006 1.06581e-014 -26.9637 -0.0134491 -2.70426 11.2648 3.8147e-006 1.90735e-006 -1.98918e-006 -1.00584e-008 -4.01189e-008 2.71429 -8.18693 -0.209967 -137.805 38.9701 -26.3891 9.87129 -1.90735e-006 -5.32907e-015 41.7137 2.39894 -0.285266 21.8657 2.86102e-006 -1.90735e-006 -32.2383 16.2002 28.4403 11.0011 3.8147e-006 8.84626e-013 -29.1585 -0.110612 -0.924579 12.8798 -3.8147e-006 -7.6294e-006 -40.611 0.00769317 -0.0028493 13.0642 3.8147e-006 3.8147e-006 3.67635e-007 9.99393e-006 2.30396e-006 2.7143 8.18692 -0.209976 142.486 -27.2006 6.49508 9.8713 -9.53674e-007 -1.90735e-006 -41.5156 -2.39761 -0.14194 21.8657 -9.53674e-007 3.8147e-006 48.8035 -5.05438 18.1206 11.0011 -6.03961e-013 3.8147e-006 15.9787 0.460526 -0.791666 12.8798 3.8147e-006 1.90735e-006 24.6094 0.04699 0.0794704 13.0642 0 1.90735e-006 5.15166e-007 1.8987e-006 1.03914e-005 6.51512 7.99896 -4.2909 128.375 -21.9483 19.921 9.03709 9.53674e-007 -1.90735e-006 -89.9149 2.14756 -2.94762 18.7638 -2.86102e-006 7.10543e-015 100.758 -29.5404 38.2971 10.9666 -7.10542e-015 8.88179e-016 43.4302 0.305719 -2.43695 10.8726 3.81469e-006 -1.35447e-013 41.5961 0.0161212 -3.55308 11.2649 3.81469e-006 1.90735e-006 -9.81591e-006 7.80029e-008 9.81493e-009 10.8127 7.82776 -6.29737 90.3202 -35.0386 39.2389 8.91072 9.53675e-007 2.86102e-006 -85.8955 -1.07953 1.78084 15.6024 2.86102e-006 9.53674e-007 90.0256 -30.1525 51.0721 9.68173 1.90735e-006 8.88178e-014 36.6806 1.15644 -14.7759 10.6982 0 -7.10543e-015 54.2139 -4.11225 -2.33702 11.1504 -3.8147e-006 -9.53674e-007 -9.97064e-006 4.015e-006 1.00146e-005 28.5502 2.54627 -3.93738 89.995 -40.8534 50.3813 2.30267 -1.90735e-006 -2.66454e-015 -28.9957 16.2797 7.48198 5.31895 -3.55271e-015 2.38419e-007 -10.4115 6.84224 1.26789 9.71243 8.88178e-015 3.55272e-015 -28.7056 -3.47156 4.59923 28.5502 -2.54612 -3.93737 89.9968 -39.1541 129.609 2.30267 -1.90735e-006 4.76837e-007 -43.1004 -1.12609 4.33582 5.31895 -3.55271e-015 -5.32907e-015 -9.3282 0.489478 12.5985 9.71243 9.53675e-007 -5.36442e-007 -16.5155 -4.96273 23.4536 15.9737 8.03546 -8.36195 60.7101 27.9229 -1.68198 16.8869 -2.38419e-006 -1.90735e-006 -59.4781 -3.21389 -5.62406 8.42975 0 -9.53675e-007 -35.5069 -15.1528 3.52445 7.53865 -0.0312081 2.09083 -7.4529 -5.42205 -7.19549 14.7806 -6.70232 -9.44365 -10.2638 -19.1805 11.0705 19.9827 1.90735e-006 -3.8147e-006 23.2771 -31.9225 -4.25881 17.4553 3.8147e-006 9.53674e-007 14.9539 -33.5472 -19.6033 13.3835 -2.22654 7.39821 6.65485 5.46923 15.0749 
